Exact Audio Copy V0.99 prebeta 1 from 25. May 2007

EAC 抓取日志文件从1. 十一月 2010, 23:23

阎维文 / 20世纪中华歌坛名人百集珍藏版

使用驱动器  ：BENQ    DVD-ROM 16X   Adapter: 0  ID: 1

读取模式     : 保护
使用精确流   : 是
废除音频缓冲 : 是
使用 C2 指针 : 否

读取偏移校正                   : 738
读取 Lead-In 和 Lead-Out       : 否
用静音填充抓取中丢失偏移的采样 : 是
去除首尾静音块                 : 否
已用接口                       : 已安装外部 ASPI 接口

所用输出格式 : 内部 WAV 函数
样本格式     : 44.100 Hz;16 Bit;立体声


被抓轨 CD 的 TOC

     音轨 |   开始   |   长度   | 起始扇区 | 结尾扇区 
    --------------------------------------------------
       1  |  0:00.00 |  3:32.47 |       0  |   15946  
       2  |  3:32.47 |  3:21.10 |   15947  |   31031  
       3  |  6:53.57 |  2:44.45 |   31032  |   43376  
       4  |  9:38.27 |  5:28.00 |   43377  |   67976  
       5  | 15:06.27 |  3:09.55 |   67977  |   82206  
       6  | 18:16.07 |  3:53.38 |   82207  |   99719  
       7  | 22:09.45 |  3:16.52 |   99720  |  114471  
       8  | 25:26.22 |  4:08.30 |  114472  |  133101  
       9  | 29:34.52 |  3:48.10 |  133102  |  150211  
      10  | 33:22.62 |  4:33.38 |  150212  |  170724  
      11  | 37:56.25 |  2:51.37 |  170725  |  183586  
      12  | 40:47.62 |  3:32.70 |  183587  |  199556  
      13  | 44:20.57 |  3:18.33 |  199557  |  214439  
      14  | 47:39.15 |  5:14.70 |  214440  |  238059  
      15  | 52:54.10 |  3:26.32 |  238060  |  253541  
      16  | 56:20.42 |  5:09.20 |  253542  |  276736  


范围状态及错误

已选择范围

     文件名 E:\文件夹\20世纪中华歌坛名人百集珍藏版-阎维文[lwg188原创]\阎维文 - 20世纪中华歌坛名人百集珍藏版.wav

     峰值电平 100.0 %
     范围质量 100.0 %
     复制 CRC 935991E4
     复制成功

没有错误发生

状态报告结尾
